# xmcd
#
# Track frame offsets: 
#        150
#        19745
#        40300
#        68340
#        79747
#        96347
#        122260
#        131875
#        159950
#
# Disc length: 2701 seconds
#
# Revision: 4
# Processed by: cddbd v1.5.2PL0 Copyright (c) Steve Scherf et al.
# Submitted via: ExactAudioCopyFreeDBPlugin 1.0
#
DISCID=670a8b09
DTITLE=Son House - The Perfect Blues Collection [disc 11] Son House^ F
DTITLE=ather of Folk Blues
DYEAR=2011
DGENRE=Blues
TTITLE0=Death Letter
TTITLE1=Pearline
TTITLE2=Louise McGhee
TTITLE3=John the Revelator
TTITLE4=Empire State Express
TTITLE5=Preachin' Blues
TTITLE6=Grinning In Your Face
TTITLE7=Sundown
TTITLE8=Levee Camp Moan
EXTD=
EXTT0=
EXTT1=
EXTT2=
EXTT3=
EXTT4=
EXTT5=
EXTT6=
EXTT7=
EXTT8=
PLAYORDER=
